<?xml version="1.0" encoding="UTF-8"?>
<svg width="900" height="600" xmlns="http://www.w3.org/2000/svg">
  <!-- Background -->
  <rect width="900" height="600" fill="#f8fafc" />
  
  <!-- Title -->
  <text x="450" y="50" font-family="Arial" font-size="24" fill="#0f172a" text-anchor="middle" font-weight="bold">Semantic Property Search Application Architecture</text>

  <!-- Frontend Section -->
  <rect x="50" y="100" width="300" height="350" fill="#e0f2fe" rx="10" ry="10" stroke="#7dd3fc" stroke-width="2" />
  <text x="200" y="120" font-family="Arial" font-size="18" fill="#0369a1" text-anchor="middle" font-weight="bold">Frontend (React)</text>
  
  <!-- Frontend Components -->
  <rect x="80" y="140" width="240" height="40" fill="#f0f9ff" rx="5" ry="5" stroke="#7dd3fc" stroke-width="1" />
  <text x="200" y="165" font-family="Arial" font-size="14" fill="#0c4a6e" text-anchor="middle">PropertySearch.tsx</text>
  
  <rect x="80" y="190" width="240" height="40" fill="#f0f9ff" rx="5" ry="5" stroke="#7dd3fc" stroke-width="1" />
  <text x="200" y="215" font-family="Arial" font-size="14" fill="#0c4a6e" text-anchor="middle">PropertyFilters.tsx</text>
  
  <rect x="80" y="240" width="240" height="40" fill="#f0f9ff" rx="5" ry="5" stroke="#7dd3fc" stroke-width="1" />
  <text x="200" y="265" font-family="Arial" font-size="14" fill="#0c4a6e" text-anchor="middle">PropertyResults.tsx</text>
  
  <rect x="80" y="290" width="240" height="40" fill="#f0f9ff" rx="5" ry="5" stroke="#7dd3fc" stroke-width="1" />
  <text x="200" y="315" font-family="Arial" font-size="14" fill="#0c4a6e" text-anchor="middle">PropertyCard.tsx</text>
  
  <rect x="80" y="340" width="240" height="40" fill="#f0f9ff" rx="5" ry="5" stroke="#7dd3fc" stroke-width="1" />
  <text x="200" y="365" font-family="Arial" font-size="14" fill="#0c4a6e" text-anchor="middle">lib/queryClient.ts (API Client)</text>
  
  <rect x="80" y="390" width="240" height="40" fill="#f0f9ff" rx="5" ry="5" stroke="#7dd3fc" stroke-width="1" />
  <text x="200" y="415" font-family="Arial" font-size="14" fill="#0c4a6e" text-anchor="middle">lib/types.ts (Data Models)</text>

  <!-- Backend Section -->
  <rect x="550" y="100" width="300" height="350" fill="#dcfce7" rx="10" ry="10" stroke="#86efac" stroke-width="2" />
  <text x="700" y="120" font-family="Arial" font-size="18" fill="#166534" text-anchor="middle" font-weight="bold">Backend (Express)</text>
  
  <!-- Backend Components -->
  <rect x="580" y="140" width="240" height="40" fill="#f0fdf4" rx="5" ry="5" stroke="#86efac" stroke-width="1" />
  <text x="700" y="165" font-family="Arial" font-size="14" fill="#14532d" text-anchor="middle">server/routes.ts (API Routes)</text>
  
  <rect x="580" y="190" width="240" height="40" fill="#f0fdf4" rx="5" ry="5" stroke="#86efac" stroke-width="1" />
  <text x="700" y="215" font-family="Arial" font-size="14" fill="#14532d" text-anchor="middle">server/storage.ts (Data Layer)</text>
  
  <rect x="580" y="240" width="240" height="40" fill="#f0fdf4" rx="5" ry="5" stroke="#86efac" stroke-width="1" />
  <text x="700" y="265" font-family="Arial" font-size="14" fill="#14532d" text-anchor="middle">services/openai.ts (OpenAI)</text>
  
  <rect x="580" y="290" width="240" height="40" fill="#f0fdf4" rx="5" ry="5" stroke="#86efac" stroke-width="1" />
  <text x="700" y="315" font-family="Arial" font-size="14" fill="#14532d" text-anchor="middle">services/pinecone.ts (Pinecone)</text>
  
  <rect x="580" y="340" width="240" height="40" fill="#f0fdf4" rx="5" ry="5" stroke="#86efac" stroke-width="1" />
  <text x="700" y="365" font-family="Arial" font-size="14" fill="#14532d" text-anchor="middle">shared/schema.ts (Data Models)</text>
  
  <rect x="580" y="390" width="240" height="40" fill="#f0fdf4" rx="5" ry="5" stroke="#86efac" stroke-width="1" />
  <text x="700" y="415" font-family="Arial" font-size="14" fill="#14532d" text-anchor="middle">api/index.js (Vercel Serverless)</text>

  <!-- External Services -->
  <rect x="300" y="500" width="150" height="60" fill="#fef9c3" rx="10" ry="10" stroke="#fde047" stroke-width="2" />
  <text x="375" y="535" font-family="Arial" font-size="14" fill="#713f12" text-anchor="middle" font-weight="bold">OpenAI API</text>
  
  <rect x="500" y="500" width="150" height="60" fill="#fef9c3" rx="10" ry="10" stroke="#fde047" stroke-width="2" />
  <text x="575" y="535" font-family="Arial" font-size="14" fill="#713f12" text-anchor="middle" font-weight="bold">Pinecone Vector DB</text>

  <!-- Arrows -->
  <!-- Frontend to Backend -->
  <path d="M 360 250 L 540 250" stroke="#94a3b8" stroke-width="2" marker-end="url(#arrowhead)" fill="none" />
  <text x="450" y="235" font-family="Arial" font-size="12" fill="#64748b" text-anchor="middle">API Requests</text>
  
  <!-- Backend to OpenAI -->
  <path d="M 700 460 L 700 480 L 375 480 L 375 495" stroke="#94a3b8" stroke-width="2" marker-end="url(#arrowhead)" fill="none" />
  <text x="520" y="470" font-family="Arial" font-size="12" fill="#64748b" text-anchor="middle">Generate Embeddings</text>
  
  <!-- Backend to Pinecone -->
  <path d="M 700 460 L 700 480 L 575 480 L 575 495" stroke="#94a3b8" stroke-width="2" marker-end="url(#arrowhead)" fill="none" />
  <text x="640" y="470" font-family="Arial" font-size="12" fill="#64748b" text-anchor="middle">Vector Search</text>
  
  <!-- Backend to Frontend -->
  <path d="M 540 270 L 360 270" stroke="#94a3b8" stroke-width="2" marker-end="url(#arrowhead)" fill="none" />
  <text x="450" y="285" font-family="Arial" font-size="12" fill="#64748b" text-anchor="middle">Search Results</text>

  <!-- Data Flow Description -->
  <g>
    <rect x="155" y="480" width="590" height="100" fill="#f1f5f9" rx="5" ry="5" stroke="#cbd5e1" stroke-width="1" opacity="0.7" />
    <text x="165" y="500" font-family="Arial" font-size="14" fill="#334155" font-weight="bold">Data Flow:</text>
    <text x="165" y="520" font-family="Arial" font-size="12" fill="#334155">1. User inputs natural language query describing desired property characteristics</text>
    <text x="165" y="540" font-family="Arial" font-size="12" fill="#334155">2. Request sent to backend, which generates embedding vector using OpenAI API</text>
    <text x="165" y="560" font-family="Arial" font-size="12" fill="#334155">3. Vector used to search Pinecone for semantically similar property listings</text>
    <text x="165" y="580" font-family="Arial" font-size="12" fill="#334155">4. Results returned to frontend, where they can be filtered and displayed</text>
  </g>

  <!-- Arrowhead marker definition -->
  <defs>
    <marker id="arrowhead" markerWidth="10" markerHeight="7" refX="9" refY="3.5" orient="auto">
      <polygon points="0 0, 10 3.5, 0 7" fill="#94a3b8" />
    </marker>
  </defs>
</svg>